<svg id="Lager_2" data-name="Lager 2" xmlns="http://www.w3.org/2000/svg" xmlns:xlink="http://www.w3.org/1999/xlink" viewBox="0 0 1920 530"><defs><style>.cls-1,.cls-10,.cls-4,.cls-6{fill:none;}.cls-2{fill:#191911;}.cls-3{fill:#fff;}.cls-4,.cls-5,.cls-6{stroke:#1d9b46;}.cls-10,.cls-4,.cls-5,.cls-6{stroke-miterlimit:10;}.cls-4,.cls-5{stroke-width:10px;}.cls-5{fill:#3c6;}.cls-10,.cls-5{stroke-linecap:round;}.cls-6{stroke-width:20px;}.cls-7{fill:#50d3d3;}.cls-8{clip-path:url(#clip-path);}.cls-9{fill:#1d9b46;}.cls-10{stroke:#9ff;stroke-width:15px;}</style><clipPath id="clip-path"><circle class="cls-1" cx="495" cy="265" r="148.16"/></clipPath></defs><title>B2-header</title><rect class="cls-2" width="1920" height="530"/><g id="Stjärnor"><circle class="cls-3" cx="980" cy="36.19" r="2.22"/><circle class="cls-3" cx="811" cy="113.37" r="2.22"/><circle class="cls-3" cx="870.5" cy="154.78" r="2.22"/><circle class="cls-3" cx="1275.44" cy="57.81" r="2.22" transform="translate(-1.22 73.19) rotate(-3.29)"/><circle class="cls-3" cx="1237.5" cy="119.59" r="2.22" transform="translate(-4.82 71.12) rotate(-3.29)"/><circle class="cls-3" cx="985.5" cy="197.78" r="2.22"/><circle class="cls-3" cx="1185.5" cy="399.78" r="2.22"/><circle class="cls-3" cx="1109.5" cy="349.78" r="2.22"/><circle class="cls-3" cx="927.5" cy="415.78" r="2.22"/><circle class="cls-3" cx="717.5" cy="493.78" r="2.22"/><circle class="cls-3" cx="227.5" cy="203.78" r="2.22"/><circle class="cls-3" cx="267.5" cy="107.78" r="2.22"/><circle class="cls-3" cx="27.5" cy="47.78" r="2.22"/><circle class="cls-3" cx="65.5" cy="435.78" r="2.22"/><circle class="cls-3" cx="1835.5" cy="501.78" r="2.22"/><circle class="cls-3" cx="1685.5" cy="199.78" r="2.22"/><circle class="cls-3" cx="1571.5" cy="69.78" r="2.22"/><circle class="cls-3" cx="1849.5" cy="79.78" r="2.22"/><circle class="cls-3" cx="1411.5" cy="481.78" r="2.22"/></g><path class="cls-4" d="M495,265s44,207,209,193,323.87-121,571.44-72"/><circle class="cls-5" cx="1309.1" cy="395.51" r="33.67"/><path class="cls-6" d="M1339.78,409.38s73.94,29.62,114.88,43.89c198.23,69.11,501-40.95,501-40.95"/><g id="Planet"><g id="Globe"><circle class="cls-7" cx="495" cy="265" r="148.16"/><g class="cls-8"><path class="cls-9" d="M677.43,153H630.14a7,7,0,0,0-7.14,7.11v0.09c0,3.46,2.18,5.8,5.56,7.8H655c4.17,0,7,2.63,7,6.61v-0.08c0,4-2.82,6.47-7,6.47H613.79c-3.7,1-6.56,3.85-6.56,7.51S610,195,613.64,196H672c4.17,0,7.55,3,7.55,7s-3.38,7-7.55,7H607.64a7.89,7.89,0,0,0-5.64,7.68v0c0,3.83,2.7,6.27,6.65,7.27h35a7.18,7.18,0,0,1,7.35,7.18v0.09c0,4-3.18,6.73-7.35,6.73H632a7.5,7.5,0,1,0,0,15h31.23a7.66,7.66,0,0,1,5.34,2,7.79,7.79,0,0,1,2.21,5.43,7.67,7.67,0,0,1-7.55,7.54H558.69c-4.17,0-7.71,3-7.71,7h0c0,0.05,0-.06,0,0,0,4-3.39,7-7.56,7H443.48a7,7,0,1,1,0-14H459.3a7.64,7.64,0,0,0,7.67-7.46,6.27,6.27,0,0,0-2.29-4.77,7.67,7.67,0,0,0-5.42-1.78h-9.37c-4.17,0-7.89-4.09-7.89-8.07v-0.08a8.24,8.24,0,0,1,7.88-7.85h26.58l2.47,0.2c4.16,0,7.52-2.95,7.55-6.91a7.38,7.38,0,0,0-7.55-7.15l-2.45-.14H431.37c-4.17,0-7.55-3-7.55-7s3.38-7,7.55-7H485.6l4.09-.14a7.25,7.25,0,0,0,7.55-7,6.8,6.8,0,0,0-6.56-6.87H461.42c-4.2,0-8.42-3.54-8.42-7.55v-0.11c0-4,4.21-7.34,8.42-7.34h24.37l-0.06,0a7.1,7.1,0,0,0,7.27-7.16v-0.09c0-4-3.16-6.78-7.36-6.78h-7.75a8.13,8.13,0,0,1-7.89-7.77v-0.11c0-4,3.69-7.12,7.89-7.12H556.6a7.63,7.63,0,0,0,7.55-7.5,7.63,7.63,0,0,1,7.55-7.5H677.43A7.5,7.5,0,1,1,677.43,153Z"/></g><g class="cls-8"><path class="cls-9" d="M766.19,444H718.9c-4.17,0-8.9-3.4-8.9-7.37v-0.09c0-3.46,3.94-6.54,7.32-7.54h26.45c4.17,0,7.23-2.89,7.23-6.87v0.08a7.11,7.11,0,0,0-7.23-7.21H702.55c-3.7,0-6.56-3.35-6.56-7s2.78-6,6.4-7h58.35a7.5,7.5,0,1,0,0-15H696.41c-3.47,0-5.41-3.45-5.41-6.94v0c0-3.83,2.46-6,6.41-8h35c4.17,0,7.59-2.46,7.59-6.44v-0.09c0-4-3.41-6.47-7.59-6.47H720.77c-4.17,0-7.55-4-7.55-8s3.38-8,7.55-8H752c2.09,0,4-.36,5.34-1.66a7.06,7.06,0,0,0,2.21-5.11A7.41,7.41,0,0,0,752,328H647.45c-4.17,0-7.71-3-7.71-7h0c0-.05,0,0.06,0,0,0-4-3.39-7-7.56-7H532.24c-4.14,0-7.5,2.55-7.5,6.5s3.36,6.5,7.5,6.5h15.83a8,8,0,0,1,7.67,7.83,6.94,6.94,0,0,1-2.29,5.08A7.91,7.91,0,0,1,548,342h-9.37c-4.17,0-6.65,3.83-6.65,7.81v0.08c0,4,2.47,8.11,6.65,8.11h26.58l2.47-.33c4.16,0,7.52,2.88,7.55,6.84s-3.39,6.75-7.55,6.75l-2.45-.26H520.13a7.5,7.5,0,1,0,0,15h58.33c4.15,0,7.52,2.6,7.55,6.55a6.42,6.42,0,0,1-6.56,6.44H550.18c-4.2,0-8.18,4.28-8.18,8.29v0.11c0,4,4,7.6,8.18,7.6h24.37l-0.44-.15a6.68,6.68,0,0,1,6.88,7V422c0,4-2.4,7-6.6,7h-7.75a7.69,7.69,0,0,0-7.65,7.51v0.11a7.57,7.57,0,0,0,7.65,7.38h78.72a7.63,7.63,0,0,1,7.55,7.5,7.63,7.63,0,0,0,7.55,7.5H766.19A7.5,7.5,0,1,0,766.19,444Z"/></g><g class="cls-8"><path class="cls-9" d="M434.5,358H387.21c-4.17,0-7.21-4.16-7.21-8.13v-0.09a8.14,8.14,0,0,1,5.63-7.78h26.45c4.17,0,6.92-2.65,6.92-6.63v0.08c0-4-2.75-7.45-6.92-7.45H370.86c-3.7-1-6.56-3.35-6.56-7s2.78-6,6.4-7h58.35c4.17,0,7.55-3,7.55-7s-3.38-7-7.55-7H364.72a8,8,0,0,1-5.72-7.7v0c0-3.83,2.78-7.25,6.73-7.25h35c4.17,0,8.27-3.22,8.27-7.2v-0.09c0-4-4.1-7.71-8.27-7.71H389.09c-4.17,0-7.55-3-7.55-7s3.38-7,7.55-7h31.23a7.67,7.67,0,0,0,5.34-2,7.78,7.78,0,0,0,2.21-5.42,7.67,7.67,0,0,0-7.55-7.54H315.77c-4.17,0-7.71-3-7.71-7h0c0-.05,0,0.06,0,0,0-4-3.39-7-7.56-7H200.55a7,7,0,1,0,0,14h15.83a7.63,7.63,0,0,1,7.67,7.45,6.29,6.29,0,0,1-2.29,4.77,7.68,7.68,0,0,1-5.42,1.78H207c-4.17,0-8,4.07-8,8v0.08c0,4,3.79,6.87,8,6.87h26.58l2.47,0.29a7.6,7.6,0,0,1,7.55,7.41A7.5,7.5,0,0,1,236,285H188.44c-4.17,0-7.55,3-7.55,7s3.38,7,7.55,7h54.24l4.09,0.13a7.26,7.26,0,0,1,7.55,7c0,3.64-2.87,5.88-6.56,6.88H218.49c-4.2,0-8.49,3.52-8.49,7.53v0.11c0,4,4.29,6.36,8.49,6.36h24.37l-0.09.47a7.48,7.48,0,0,1,7.23,7.65v0.09c0,4-3.09,6.8-7.29,6.8H235c-4.2,0-7,3.74-7,7.75v0.11c0,4,2.76,8.14,7,8.14h78.72c4.17,0,7.55,3,7.55,7s3.38,7,7.55,7H434.5c4.17,0,7.55-3,7.55-7S438.67,358,434.5,358Z"/></g><g id="Clouds"><path class="cls-3" d="M484.24,358H451.58a9.82,9.82,0,0,1-1.13-.66,7.54,7.54,0,0,1-6.15-7.27l-0.08-.19,0.08-.38c0-3.94-3.16-7.5-7.11-7.5H367a7.32,7.32,0,0,0-5.09,2.27,9,9,0,0,0-2.11,5.8c0,4,3.22,7.93,7.2,7.93h33.69a7,7,0,1,1,0,14H384.81a6.88,6.88,0,0,0-5.09,1.71,7,7,0,0,0-2.11,5,7.27,7.27,0,0,0,7.2,7.28h62.81a7.6,7.6,0,0,0,5.18-2.33,7.72,7.72,0,0,0,2.2-5.25v-0.06c0-3.95,3.06-6.36,7-6.36h22.23a7.62,7.62,0,0,0,5.09-2.55,6.35,6.35,0,0,0,2.11-4.73C491.44,360.75,488.22,358,484.24,358Z"/><path class="cls-3" d="M532.3,196H565a7.16,7.16,0,0,1,1.13.09,7.23,7.23,0,0,1,6.15,7l0.08,0-0.08.38c0,3.94,3.16,7.5,7.11,7.5h70.19a7.39,7.39,0,0,0,5.09-2.34,7.6,7.6,0,0,0,2.11-5.27,7.37,7.37,0,0,0-7.2-7.4H615.86a7.5,7.5,0,0,1,0-15h15.88a6.67,6.67,0,0,0,7.2-6.76,7.24,7.24,0,0,0-7.2-7.24H568.92a8.19,8.19,0,0,0-5.45,2.26,7.82,7.82,0,0,0-2.47,5.18v0.06c0,3.95-2.52,6.5-6.48,6.5H532.3a7.88,7.88,0,0,0-7.2,7.74A7.25,7.25,0,0,0,532.3,196Z"/><path class="cls-3" d="M436.75,263.53a8.68,8.68,0,0,1-2.18,5.78c-1.35,1.35-3.21,2.69-5.27,2.69H335.46c-4.12,0-7.45-3.81-7.45-7.93a8.18,8.18,0,0,1,2.18-5.58,7.71,7.71,0,0,1,5.27-2.49h10.34a7.56,7.56,0,0,0,7.46-7.57c0-3.6-2.56-7.43-6-7.43H335.46a7.35,7.35,0,0,1-7.45-7.34,7.67,7.67,0,0,1,2.18-5.37,7.5,7.5,0,0,1,5.27-2.29h10.34a7.39,7.39,0,0,0,7.46-7.38,7.62,7.62,0,0,1,2.18-5.35,7.51,7.51,0,0,1,5.27-2.27h27.51a7.49,7.49,0,0,1,7.45,7.5,7.49,7.49,0,0,0,7.46,7.5h23.68a7.59,7.59,0,0,1,7.45,7.62,7.4,7.4,0,0,1-7.45,7.38h-18c-3.4,0-6,3.82-6,7.43A7.56,7.56,0,0,0,410.3,256h19A7.52,7.52,0,0,1,436.75,263.53Z"/><path class="cls-3" d="M632.08,342H605.72a7.41,7.41,0,0,1-7.34-7.42,7.8,7.8,0,0,1,2.15-5.39,7.33,7.33,0,0,1,5.19-2.18h43.13a6.53,6.53,0,0,0,4.72-1.84,6.89,6.89,0,0,0,1.95-4.82,6.39,6.39,0,0,0-6.67-6.34h-17a6.58,6.58,0,0,1-6.68-6.57c0-3.23,2.29-6.43,5.33-6.43h16.12a6.94,6.94,0,0,0,4.72-2.29,7.21,7.21,0,0,0,2-5,6.75,6.75,0,0,0-6.68-6.76h-21.2a6.53,6.53,0,0,1-6.68-6.5,6.53,6.53,0,0,0-6.68-6.5H587.44a6.3,6.3,0,0,0-6.67,6.36,6.65,6.65,0,0,1-6.68,6.64h-9.25a6.69,6.69,0,0,0-4.72,2,7.27,7.27,0,0,0-2,5,7,7,0,0,0,6.68,7h10.6c3,0,5.33,3.21,5.33,6.43a6.58,6.58,0,0,1-6.68,6.57h-9.25a6.41,6.41,0,0,0-4.63,1.94,6.48,6.48,0,0,0-1.86,4.68,6.37,6.37,0,0,1-2.12,4.52,6.54,6.54,0,0,1-4.72,1.86H514.82a7.65,7.65,0,0,0-5.09,2.57A7.3,7.3,0,0,0,514.82,342h33.7c4.08,0,7.38,3.92,7.38,8s-3.3,8-7.38,8H532.64c-2,0-3.78.22-5.09,1.52a7.19,7.19,0,0,0-2.11,5.11,7.35,7.35,0,0,0,7.2,7.37h62.81a8,8,0,0,0,5.26-2.52A8.29,8.29,0,0,0,603,364V364c0-3.95,2.89-6,6.85-6h22.23c2,0,3.78-1.44,5.09-2.75a8.52,8.52,0,0,0,2.11-5.63C639.28,345.65,636,342,632.08,342Z"/></g><path class="cls-10" d="M405.21,170.88A126.89,126.89,0,0,1,471,137.64"/><path class="cls-10" d="M383.29,198.49q2.53-4.3,5.38-8.37"/></g></g></svg>