<svg id="illustration" xmlns="http://www.w3.org/2000/svg" xmlns:xlink="http://www.w3.org/1999/xlink" viewBox="0 0 1959.08 530"><defs><style>.cls-1,.cls-17,.cls-4,.cls-6{fill:none;}.cls-2{fill:#191911;}.cls-3{fill:#fff;}.cls-4,.cls-5,.cls-6{stroke:#1d9b46;}.cls-17,.cls-4,.cls-5,.cls-6{stroke-miterlimit:10;}.cls-4,.cls-5{stroke-width:10px;}.cls-5{fill:#3c6;}.cls-17,.cls-5{stroke-linecap:round;}.cls-6{stroke-width:20px;}.cls-7{fill:#3a7c47;}.cls-7,.cls-8{opacity:0.41;}.cls-8{fill:#2da847;}.cls-9{fill:#e8b760;}.cls-10{fill:#84cbd1;}.cls-11{fill:#c99375;}.cls-12{fill:#d84c5a;}.cls-13{fill:#e8e8e8;}.cls-14{fill:#50d3d3;}.cls-15{clip-path:url(#clip-path);}.cls-16{fill:#1d9b46;}.cls-17{stroke:#9ff;stroke-width:15px;}.cls-18{fill:#9b9b9b;}</style><clipPath id="clip-path"><circle class="cls-1" cx="495" cy="265" r="148.16"/></clipPath></defs><title>B2-header_V2</title><rect id="space" class="cls-2" width="1920" height="530"/><g id="stars"><circle class="cls-3" cx="980" cy="36.19" r="2.22"/><circle class="cls-3" cx="811" cy="113.37" r="1.36"/><circle class="cls-3" cx="870.5" cy="154.78" r="2.22"/><circle class="cls-3" cx="1275.44" cy="57.71" r="4.06" transform="translate(-1.21 73.29) rotate(-3.29)"/><circle class="cls-3" cx="1237.5" cy="119.49" r="2.22" transform="translate(-4.82 71.22) rotate(-3.29)"/><circle class="cls-3" cx="985.5" cy="197.78" r="5.75"/><circle class="cls-3" cx="1185.5" cy="399.78" r="2.22"/><circle class="cls-3" cx="1109.5" cy="349.78" r="2.22"/><circle class="cls-3" cx="927.5" cy="415.78" r="2.22"/><circle class="cls-3" cx="717.5" cy="493.78" r="4.33"/><circle class="cls-3" cx="227.5" cy="203.78" r="2.22"/><circle class="cls-3" cx="267.5" cy="107.78" r="2.22"/><circle class="cls-3" cx="27.5" cy="47.78" r="3.61"/><circle class="cls-3" cx="65.5" cy="435.78" r="2.22"/><circle class="cls-3" cx="1835.5" cy="501.78" r="2.22"/><circle class="cls-3" cx="1685.5" cy="199.78" r="4.72"/><circle class="cls-3" cx="1571.5" cy="69.78" r="2.22"/><circle class="cls-3" cx="1849.5" cy="79.78" r="2.22"/><circle class="cls-3" cx="1411.5" cy="481.78" r="2.22"/></g><g id="connection"><path id="left" class="cls-4" d="M495,265s44,207,209,193,323.87-121,571.44-72"/><circle id="ball" class="cls-5" cx="1309.1" cy="395.51" r="33.67"/><path id="right" class="cls-6" d="M1339.78,409.38s73.94,29.62,114.88,43.89c198.23,69.11,501-41,501-41"/></g><g id="planet"><g id="globe"><g id="aura"><circle id="outer" class="cls-7" cx="495" cy="265" r="247.67"/><circle id="inner" class="cls-8" cx="495" cy="265" r="203"/></g><g id="houses"><g id="yellow-house"><path class="cls-9" d="M600.52,164.92l-23.37-20.74a6,6,0,0,1-.51-8.48l22.24-34.29a7.7,7.7,0,0,1,10.87-.65l30,26.59a7.7,7.7,0,0,1,.65,10.87L609,164.42A6,6,0,0,1,600.52,164.92Z"/><rect class="cls-10" x="606.89" y="129.89" width="22.2" height="13.59" rx="6.8" ry="6.8" transform="translate(246.55 -375.78) rotate(41.59)"/><rect class="cls-10" x="593.05" y="113.79" width="13.59" height="13.59" rx="6.8" ry="6.8" transform="translate(231.28 -367.79) rotate(41.59)"/><path class="cls-11" d="M603.1,138.43h0a7.49,7.49,0,0,0-10.57.63l-9.17,12.42,9.13,8.1L603.73,149A7.49,7.49,0,0,0,603.1,138.43Z"/><rect class="cls-11" x="587.09" y="107.42" width="73.62" height="15.16" rx="7.58" ry="7.58" transform="translate(233.63 -385.17) rotate(41.59)"/></g><g id="red-house"><polygon class="cls-12" points="598.25 370.22 625.76 332.8 662.37 354.8 653.39 381.94 630.16 398.61 598.25 370.22"/><path class="cls-13" d="M660.4,381.74a8.49,8.49,0,0,1-5.11,6.95h0L627.8,401.85a6.36,6.36,0,0,1-8.47-3h0a6.36,6.36,0,0,1,3-8.47l22.74-10.76a6.36,6.36,0,0,0,3.58-4.87l3.49-24.91a6.36,6.36,0,0,1,7.18-5.42h0a6.36,6.36,0,0,1,5.42,7.18l-4.36,30.16"/><path class="cls-13" d="M627.37,338.08h0a7.07,7.07,0,0,1,7.07,7.07v14.61a0,0,0,0,1,0,0H620.3a0,0,0,0,1,0,0V345.15a7.07,7.07,0,0,1,7.07-7.07Z" transform="translate(1280.1 50.13) rotate(126.32)"/><rect class="cls-10" x="609.79" y="366.49" width="19.98" height="12.19" rx="6.1" ry="6.1" transform="translate(1287.08 93.94) rotate(126.32)"/></g><g id="white-house"><path class="cls-13" d="M301.11,278.13l47.6-8.45,21.1,74.14L339.5,357.55a10,10,0,0,1-12.38-6.89L319,322a7.25,7.25,0,0,0-9-5l-6.05,1.72a7.25,7.25,0,0,1-9.23-6.71l-0.88-23.88A10,10,0,0,1,301.11,278.13Z"/><rect class="cls-11" x="296.42" y="333.79" width="55.93" height="10.88" rx="5.44" ry="5.44" transform="matrix(-0.27, -0.96, 0.96, -0.27, 86.92, 744.09)"/><rect class="cls-11" x="268.34" y="291.64" width="55.93" height="10.88" rx="5.44" ry="5.44" transform="translate(10.02 603.82) rotate(-92.05)"/><rect class="cls-10" x="308.27" y="286.44" width="16.55" height="16.55" rx="8.27" ry="8.27" transform="translate(119.75 679.84) rotate(-105.89)"/><rect class="cls-10" x="324.1" y="326.46" width="34.54" height="11.84" rx="5.92" ry="5.92" transform="translate(115.13 751.7) rotate(-105.89)"/><path class="cls-11" d="M351.4,279.15l3.48,12.22L338.77,296a7.28,7.28,0,0,1-9-5h0a7.28,7.28,0,0,1,5-9Z"/></g></g><circle id="water" class="cls-14" cx="495" cy="265" r="148.16"/><g id="land"><g class="cls-15"><path class="cls-16" d="M677.43,153H630.14a7,7,0,0,0-7.14,6.86q0,0.13,0,.25v0.09c0,3.46,2.18,5.8,5.56,7.8H655c4.17,0,7,2.63,7,6.61v-0.08c0,4-2.82,6.47-7,6.47H613.79c-3.7,1-6.56,3.85-6.56,7.51S610,195,613.64,196H672c4.17,0,7.55,3,7.55,7s-3.38,7-7.55,7H607.64a7.89,7.89,0,0,0-5.64,7.68h0c0,3.83,2.7,6.27,6.65,7.27h35a7.18,7.18,0,0,1,7.35,7q0,0.09,0,.17v0.09c0,4-3.18,6.73-7.35,6.73H632a7.5,7.5,0,0,0,0,15h31.23a7.66,7.66,0,0,1,5.34,2,7.79,7.79,0,0,1,2.21,5.43,7.67,7.67,0,0,1-7.55,7.54H558.69c-4.17,0-7.71,3-7.71,7h0c0,4-3.39,7-7.56,7H443.48a7,7,0,0,1,0-14H459.3a7.64,7.64,0,0,0,7.67-7.46,6.27,6.27,0,0,0-2.29-4.77,7.67,7.67,0,0,0-5.42-1.78h-9.37c-4.17,0-7.89-4.09-7.89-8.07v-0.08a8.24,8.24,0,0,1,7.88-7.85h26.58l2.47,0.2c4.16,0,7.52-2.95,7.55-6.91a7.38,7.38,0,0,0-7.55-7.15l-2.45-.14H431.37c-4.17,0-7.55-3-7.55-7s3.38-7,7.55-7H485.6l4.09-.14a7.25,7.25,0,0,0,7.55-6.94v-0.06a6.8,6.8,0,0,0-6.56-6.87H461.42c-4.2,0-8.42-3.54-8.42-7.55v-0.11c0-4,4.21-7.34,8.42-7.34h24.31A7.1,7.1,0,0,0,493,175q0-.12,0-0.23v-0.09c0-4-3.16-6.78-7.36-6.78h-7.75A8.13,8.13,0,0,1,470,160.1V160c0-4,3.69-7.12,7.89-7.12H556.6a7.63,7.63,0,0,0,7.55-7.5,7.63,7.63,0,0,1,7.55-7.5H677.43A7.57,7.57,0,0,1,677.43,153Z"/></g><g class="cls-15"><path class="cls-16" d="M766.19,444H718.9c-4.17,0-8.9-3.4-8.9-7.37v-0.09c0-3.46,3.94-6.54,7.32-7.54h26.45c4.17,0,7.23-2.89,7.23-6.87v0.08a7.11,7.11,0,0,0-7-7.21H702.55c-3.7,0-6.56-3.35-6.56-7s2.78-6,6.4-7h58.35a7.5,7.5,0,0,0,0-15H696.41c-3.47,0-5.41-3.45-5.41-6.94h0c0-3.83,2.46-6,6.41-8h35c4.17,0,7.59-2.46,7.59-6.44v-0.09c0-4-3.41-6.47-7.59-6.47H720.77c-4.17,0-7.55-4-7.55-8s3.38-8,7.55-8H752c2.09,0,4-.36,5.34-1.66a7.06,7.06,0,0,0,2.21-5.11A7.41,7.41,0,0,0,752,328H647.45c-4.17,0-7.71-3-7.71-7h0c0-4-3.39-7-7.56-7H532.24c-4.14,0-7.5,2.55-7.5,6.5s3.36,6.5,7.5,6.5h15.83a8,8,0,0,1,7.67,7.83,6.94,6.94,0,0,1-2.29,5.08A7.91,7.91,0,0,1,548,342h-9.37c-4.17,0-6.65,3.83-6.65,7.81v0.08c0,4,2.47,8.11,6.65,8.11h26.58l2.47-.33c4.16,0,7.52,2.88,7.55,6.84s-3.39,6.75-7.55,6.75l-2.45-.26h-45.1a7.5,7.5,0,0,0,0,15h58.33c4.15,0,7.52,2.6,7.55,6.55a6.42,6.42,0,0,1-6.4,6.44H550.18c-4.2,0-8.18,4.28-8.18,8.29v0.11c0,4,4,7.6,8.18,7.6h24.37l-0.44-.15a6.68,6.68,0,0,1,6.88,6.47q0,0.27,0,.53V422c0,4-2.4,7-6.6,7h-7.75a7.69,7.69,0,0,0-7.65,7.51v0.11a7.57,7.57,0,0,0,7.65,7.38h78.72a7.63,7.63,0,0,1,7.55,7.5,7.63,7.63,0,0,0,7.55,7.5H766.19A7.5,7.5,0,1,0,766.19,444Z"/></g><g class="cls-15"><path class="cls-16" d="M434.5,358H387.21c-4.17,0-7.21-4.16-7.21-8.13v-0.09a8.14,8.14,0,0,1,5.63-7.78h26.45c4.17,0,6.92-2.65,6.92-6.63v0.08c0-4-2.75-7.45-6.92-7.45H370.86c-3.7-1-6.56-3.35-6.56-7s2.78-6,6.4-7H429c4.17,0,7.55-3,7.55-7s-3.38-7-7.55-7H364.72a8,8,0,0,1-5.72-7.7h0c0-3.83,2.78-7.25,6.73-7.25h35c4.17,0,8.27-3.22,8.27-7.2v-0.09c0-4-4.1-7.71-8.27-7.71H389.09c-4.17,0-7.55-3-7.55-7s3.38-7,7.55-7h31.23a7.67,7.67,0,0,0,5.34-2,7.78,7.78,0,0,0,2.21-5.42,7.67,7.67,0,0,0-7.55-7.54H315.77c-4.17,0-7.71-3-7.71-7h0c0-4-3.39-7-7.56-7H200.55a7,7,0,0,0,0,14h15.83a7.63,7.63,0,0,1,7.67,7.45,6.29,6.29,0,0,1-2.29,4.77,7.68,7.68,0,0,1-5.42,1.78H207c-4.17,0-8,4.07-8,8v0.08c0,4,3.79,6.87,8,6.87h26.58l2.47,0.29a7.6,7.6,0,0,1,7.55,7.41A7.5,7.5,0,0,1,236,285H188.44c-4.17,0-7.55,3-7.55,7s3.38,7,7.55,7h54.24l4.09,0.13a7.26,7.26,0,0,1,7.55,7v0c0,3.64-2.87,5.88-6.56,6.88H218.49c-4.2,0-8.49,3.52-8.49,7.53v0.11c0,4,4.29,6.36,8.49,6.36h24.37l-0.09.47a7.48,7.48,0,0,1,7.23,7.65v0.09c0,4-3.09,6.8-7.29,6.8H235c-4.2,0-7,3.74-7,7.75v0.11c0,4,2.76,8.14,7,8.14h78.72c4.17,0,7.55,3,7.55,7s3.38,7,7.55,7H434.5c4.17,0,7.55-3,7.55-7S438.67,358,434.5,358Z"/></g></g><g id="shine"><path class="cls-17" d="M405.21,170.88A126.89,126.89,0,0,1,471,137.64"/><path class="cls-17" d="M383.29,198.49q2.53-4.3,5.38-8.37"/></g><g id="clouds"><path class="cls-3" d="M484.24,358H451.58a9.82,9.82,0,0,1-1.13-.66,7.54,7.54,0,0,1-6.15-7.27l-0.08-.19,0.08-.38a7.43,7.43,0,0,0-7.11-7.5H367a7.32,7.32,0,0,0-5.09,2.27,9,9,0,0,0-2.11,5.8c0,4,3.22,7.93,7.2,7.93h33.69a7,7,0,0,1,0,14H384.81a6.88,6.88,0,0,0-5.09,1.71,7,7,0,0,0-2.11,5,7.27,7.27,0,0,0,7.2,7.28h62.81a7.6,7.6,0,0,0,5.18-2.33,7.72,7.72,0,0,0,2.2-5.25v-0.06c0-4,3.06-6.36,7-6.36h22.23a7.62,7.62,0,0,0,5.09-2.55,6.35,6.35,0,0,0,2.11-4.73C491.44,360.75,488.22,358,484.24,358Z"/><path class="cls-3" d="M532.3,196H565a7.3,7.3,0,0,1,7.28,7.09h0.08l-0.08.38a7.43,7.43,0,0,0,7.11,7.5h70.19a7.39,7.39,0,0,0,5.09-2.34,7.6,7.6,0,0,0,2.11-5.27,7.37,7.37,0,0,0-7.2-7.4H615.86a7.5,7.5,0,0,1,0-15h15.88a6.67,6.67,0,0,0,7.18-6.12q0-.32,0-0.64a7.24,7.24,0,0,0-7.2-7.24H568.92a8.19,8.19,0,0,0-5.45,2.26A7.82,7.82,0,0,0,561,174.4v0.06c0,3.95-2.52,6.5-6.48,6.5H532.3a7.88,7.88,0,0,0-7.2,7.74,7.25,7.25,0,0,0,7.2,7.3h0Z"/><path class="cls-3" d="M436.75,248.2a8.68,8.68,0,0,1-2.18,5.78c-1.35,1.35-3.21,2.69-5.27,2.69H335.46c-4.12,0-7.45-3.81-7.45-7.93a8.18,8.18,0,0,1,2.18-5.58,7.71,7.71,0,0,1,5.27-2.49H345.8a7.56,7.56,0,0,0,7.46-7.57c0-3.6-2.56-7.43-6-7.43h-11.8a7.35,7.35,0,0,1-7.45-7.25v-0.09a7.67,7.67,0,0,1,2.18-5.37,7.5,7.5,0,0,1,5.27-2.29H345.8a7.39,7.39,0,0,0,7.46-7.32v-0.06a7.62,7.62,0,0,1,2.18-5.35,7.51,7.51,0,0,1,5.27-2.27h27.51a7.49,7.49,0,0,1,7.45,7.5,7.49,7.49,0,0,0,7.46,7.5h23.68a7.59,7.59,0,0,1,7.45,7.62,7.4,7.4,0,0,1-7.42,7.38h-18c-3.4,0-6,3.82-6,7.43a7.56,7.56,0,0,0,7.49,7.57h19A7.52,7.52,0,0,1,436.75,248.2Z"/><path class="cls-3" d="M641.43,314H619.58a6.12,6.12,0,0,1-6.08-6.11,6.4,6.4,0,0,1,1.78-4.44,6.09,6.09,0,0,1,4.3-1.8h35.75a5.43,5.43,0,0,0,3.91-1.52,5.66,5.66,0,0,0,1.62-4,5.28,5.28,0,0,0-5.33-5.23H641.24a5.44,5.44,0,0,1-5.54-5.34v-0.07c0-2.66,1.9-5.3,4.42-5.3h13.36a5.77,5.77,0,0,0,3.91-1.89,5.92,5.92,0,0,0,1.66-4.12,5.58,5.58,0,0,0-5.54-5.57H635.94a5.4,5.4,0,0,1-5.54-5.25s0-.07,0-0.1A5.4,5.4,0,0,0,625,258H604.42a5.21,5.21,0,0,0-5.52,4.88q0,0.18,0,.36a5.5,5.5,0,0,1-5.52,5.47h-7.68a5.56,5.56,0,0,0-3.91,1.65,6,6,0,0,0-1.66,4.12,5.78,5.78,0,0,0,5.54,5.77h8.79c2.49,0,4.42,2.64,4.42,5.3a5.44,5.44,0,0,1-5.46,5.41h-7.74a5.36,5.36,0,0,0-5.38,5.45,5.23,5.23,0,0,1-1.76,3.72,5.44,5.44,0,0,1-3.91,1.53H544.23a6.36,6.36,0,0,0-4.22,2.12,6,6,0,0,0,0,8.5,6.07,6.07,0,0,0,4.23,1.77h27.93c3.38,0,6.12,3.23,6.12,6.59s-2.74,6.59-6.12,6.59H559c-1.66,0-3.13.18-4.22,1.25a5.9,5.9,0,0,0-1.75,4.21,6.07,6.07,0,0,0,6,6.07h52.06a6.65,6.65,0,0,0,4.36-2.08,6.81,6.81,0,0,0,1.9-4.51h0c0-3.25,2.4-4.94,5.68-4.94h18.43c1.66,0,3.13-1.19,4.22-2.27a7,7,0,0,0,1.75-4.64A6.29,6.29,0,0,0,641.43,314Z"/></g></g></g><circle id="moon" class="cls-18" cx="872.72" cy="265" r="12.75"/><g id="rocket"> <g> <path id="bigflame_5_" class="st16" d="M1913.3-262.6c0,0,22.4-24.9,61.9-15.1c-0.5,40.7-30.2,56.1-30.2,56.1"/> <path id="bigflame_4_" class="st17" d="M1911.7-261.4c0,0,16.5-20.3,50.3-6.2c5.2,36.3-18.6,47.2-18.6,47.2"/> <path id="bigflame_3_" class="st18" d="M1911.7-261.4c0,0,8.2-13.9,36.2,4.8c11.1,31.8-4.4,36.2-4.4,36.2"/> <path class="st11" d="M1907.7-243c0,0-5.8-12.3,5.5-21c-0.5,5.5,10.1,13.2,16.2,11.5c-1,5,2.1,8.5,2.1,8.5s2.6,3.9,7.7,4.2 c-3.2,5.5,1.6,17.6,7.1,18.6c-11.3,8.7-21.7,0.1-21.7,0.1"/> <path class="st1" d="M1874.2-221.3c2.7-3.8,6-7.5,10-10.6c17-13.1,32.1-22,42.6-8.4s-1.8,26-18.8,39.1c-4,3.1-8.4,5.4-12.8,7"/> <path class="st11" d="M1874.2-221.3c-8.5,12.3-10.5,26.3-8.8,28.5s15.7,3.8,29.8-1.4c0,0,6-9.6-2.1-20.1 C1885-224.7,1874.2-221.3,1874.2-221.3z"/> <ellipse transform="matrix(0.791 -0.6118 0.6118 0.791 517.7185 1107.5043)" class="st19" cx="1879.8" cy="-204" rx="8.1" ry="8.1"/> </g> </g></svg>