<svg id="Lager_1" data-name="Lager 1" xmlns="http://www.w3.org/2000/svg" viewBox="0 0 549.23 1287.88"><defs><style>.cls-1{fill:#a3cead;}.cls-2{fill:none;}.cls-2,.cls-3{stroke:#1d9b46;stroke-miterlimit:10;stroke-width:2px;}.cls-3{fill:#fff;}</style></defs><title>Karta</title><path class="cls-1" d="M96.33,1300.6c1.85,1.85,9,2.62,12.28,4s6.63,4.09,8.77,4.09-0.92-6.95,2.31-6.95,6.46-3,12.46-2.22,7.38-1.57,12.92-.15,2.77,0.5,5.54,1.42a6.34,6.34,0,0,0,6.46-1.89c1.38-1.34-.52-4.43,0-5.5s2.77-.92,0-6.92a82.93,82.93,0,0,1-4.61-11.07c-1.38-4.15-4.15-6.46.46-12.46,2-2.69,2.28-6.62,8.3-7.38,1.55-.2,3.74-0.64,4.15-2.31,0.78-3.14.71-4.87,0-6s-5.54-6.46,8.3-5.54,18,1.38,29.07,2.31,18.46,0.92,18.46.92,8.54,0.46,8.54-4.15-2.42-5.08,1.73-13.84-3.83-7.38,3.09-19.84,3.09-11.53,3.09-24.45v-24c0-9.69,1.24-.46,6.77-17.53s7.54-.92,11.69-34.6,6.31-36.91,6.31-43.37-3.77-7.38,10.54-18,0.88-10.15,16.57-15.23,35.28-15.69,44.5-28.14-0.36-4.15,10.72-20.76,19.89-12.46,15.28-26.3-5.54-17.65-15.23-32.41-4.82-2.7-17.13-21.8c-13.19-20.47-20.3-7.79-30.45-16.09s-10.56-3.39-13.27-11.36c-1.22-3.6-3.19-11.44-4.38-23.93-2.64-27.65-1.9-17.42-.52-36.33s-2.71-17.3,4.67-33.91,2.94-15.57,8.48-30.8-1.73-19.09,9.34-30.62S313,698.25,313,693.64s15.69-24,20.3-30.45,3.23-10.15,12.92-17.53,5.54,1.85,18-12.46,6.92-10.61,16.61-19.84-2.31-7.38,15.69-12.46,10.61,1.38,25.84-6.92,11.3-8.07,14.07-21.92,5.08-14.53,9.23-22.84,15.92-8.3,17.3-14.76,4.15-7.84,1.85-14.76-4.15-2.08-8.77-10.38-10.61,1.15-7.38-21.45,8.3-30.91,8.3-30.91-0.46-2.31,10.15-16.15,4.61-11.07,15.23-23.53,7.38-6.46,17.53-24,7.84-10.61,19.38-10.61,30.91,1.38,42.45,2.77,6.46-40.6,2.31-43.37-12-3.23-10.61-15.23-4.61-11.53,3.23-25.84,10.61-10.61,9.23-19.38,3.23-2.31-1.85-14.3-11.53-15.23-13.38-23.53,1.85-11.53,4.61-22.15,4.15-12.92-.46-16.61-9.23,3.69-8.77-6.46,1.85-7.38.46-24,4.15-13.84,0-29.07-7.84-15.69-13.84-24.45-2.31-8.3-9.69-18-8.77-13.84-19.84-16.61-11.07-3.69-19.38-6S474,83.22,463,73.53,456,75.84,446.35,58.31s-8.77-19.84-16.61-27.68-7.38-9.69-15.23-9.23-11.07,12.92-11.07,12.92,8.3,12.46,10.61,20.76,4.15,11.53-3.69,18-14.76,5.54-15.23,13.84,12.92-2.31,2.31,11.07-6.92,20.76-17.07,13.38-14.3-12-26.76-16.61A185.18,185.18,0,0,1,333.31,86s-5.54-6.46-8.3,3.23-1.85,8.77-2.31,19.84-6.46,18.92-13.38,27.22S305.17,146,295.48,145s-14.3-8.77-20.3-1.85-3.23,1.38-14.3,20.76-9.69,17.53-18,27.68-11.07,15.69-11.07,15.69,0.92,13.38,5.08,23.07,13.38,2.31,6.92,18.46-3.69,4.61-14.76,20.76-2.09,3.06-16.61,24.91c-10.41,15.67-12.8,18.4-11.42,26.24,2.87,16.26,1.9,15.57,1.27,17.59-3.74,11.89-2.92,11.1-14.3,12.46-10.67,1.27-16,2.13-16,2.13s-7.79,1.38-8,7.56c-0.49,17.37,1.79,19.78,2.25,35s1.44,26.82-4.56,45.74-2.77,7.38-9.69,24.91-12,24.45-13.84,30-15.69,9.69-7.84,18,6.92-1.38,15.23,15.23,15.23,11.53,7.38,22.15-1.85,15.69-19.38,16.15-27.22-2.31-35.53-2.77-10.61-11.07-15.69,5.54,0.92,1.38-6.46,22.15-9.23,21.69-10.15,40.6-3.23,26.3-2.77,41.52,0.46,14.3,1.85,29.07,1.85,3.69,0,28.61S56.94,755,61.55,768.85s7.38,16.61,8.77,23.53,3.52,4,11.82,6.81S95.75,810,92.52,818.73s-1.94,14.34-5.19,19.9-11.48,3.58-17,6.34-0.92,14.76-.92,14.76,0.92-4.15,5.08,15.23,3.69,12.92,4.15,25.38S67.55,933.1,67.55,933.1s-14.76,4.61-15.69,14.3-2.77,27.68-3.69,32.76,5.08,12,1.85,23.07-8.3,20.3-11.07,23.53-3.69-1.79-5.08-8.71-7.15-18.34-10.38-5.88-5.46,5.77-2.69,26.07,1.88,4,10.65,35.87,4.27,16.32,8,37.08-2.77,20.76,5.54,33.22,7.84,6,17.53,18.46,9.69,6.92,12.46,19.38,4.15,17.07,5.54,20.76a6.56,6.56,0,0,1,5,2.17c1.85,2.31-.63,2.42,2.14,7.49s2.6,7.4,2.14,10.17-0.43,4.4-.89,6.24-1.92.69-4.23,5.31-9.69.46-1.85,10.15,7.38,8.77,10.61,14.76,3.69,4.61,4.61,14.3,2.77,9.69.46,15.23S94.48,1298.75,96.33,1300.6Z" transform="translate(-19.54 -21.33)"/><line class="cls-2" x1="48.01" y1="1052.95" x2="283.78" y2="650.16"/><line class="cls-2" x1="78" y1="1227.36" x2="48.01" y2="1052.95"/><line class="cls-2" x1="271.39" y1="985.59" x2="85.38" y2="1273.5"/><line class="cls-2" x1="228.41" y1="867.48" x2="271.39" y2="985.59"/><polyline class="cls-2" points="271.39 985.59 115.83 1045.57 216.87 936.22"/><polyline class="cls-2" points="85.38 1273.5 78 1227.36 115.83 1045.57 48.01 1052.95 216.87 936.22 230.72 962.98 271.39 985.59 292.54 968.98 228.41 867.48 283.77 650.16"/><polyline class="cls-2" points="48.01 1052.95 89.07 932.37 125.75 811.03 89.07 643.7 178.57 541.03 272.01 249.03 440.09 124.03 382.46 265.03 489.09 243.03 417.09 418.03 373.43 547.03 309.15 579.7 283.77 650.16 186.09 547.03"/><polyline class="cls-2" points="309.15 579.7 272.01 249.03 382.46 265.03 417.09 418.03 89.07 643.7 186.09 753.03 228.41 867.48 89.07 932.37"/><polyline class="cls-2" points="85.38 1273.5 170.27 1185.03 165.89 1091.7 115.83 1045.57"/><line class="cls-2" x1="292.54" y1="968.98" x2="216.87" y2="936.22"/><circle class="cls-3" cx="78" cy="1227.36" r="11.07"/><circle class="cls-3" cx="85.38" cy="1273.5" r="13.38"/><circle class="cls-3" cx="48.01" cy="1052.95" r="11.53"/><circle class="cls-3" cx="115.83" cy="1045.57" r="9.92"/><circle class="cls-3" cx="230.72" cy="962.98" r="8.77"/><circle class="cls-3" cx="216.87" cy="936.22" r="11.53"/><circle class="cls-3" cx="271.39" cy="985.59" r="7.84"/><circle class="cls-3" cx="292.54" cy="968.98" r="16.61"/><circle class="cls-3" cx="228.41" cy="867.48" r="10.61"/><circle class="cls-3" cx="283.78" cy="650.16" r="11.77"/><circle class="cls-3" cx="89.07" cy="932.37" r="11.84"/><circle class="cls-3" cx="125.75" cy="811.03" r="12"/><circle class="cls-3" cx="186.09" cy="753.03" r="7.52"/><circle class="cls-3" cx="165.89" cy="1091.7" r="12.2"/><circle class="cls-3" cx="170.27" cy="1185.03" r="8.3"/><circle class="cls-3" cx="89.07" cy="643.7" r="12.67"/><circle class="cls-3" cx="178.57" cy="541.03" r="15.03"/><circle class="cls-3" cx="309.15" cy="579.7" r="11.33"/><circle class="cls-3" cx="373.42" cy="547.03" r="9.03"/><circle class="cls-3" cx="417.09" cy="418.03" r="14"/><circle class="cls-3" cx="272.01" cy="249.03" r="16"/><circle class="cls-3" cx="489.09" cy="243.03" r="15"/><circle class="cls-3" cx="382.46" cy="265.03" r="10.32"/><circle class="cls-3" cx="440.09" cy="124.03" r="14"/></svg>